<?xml version="1.0" encoding="utf-8"?>
<!-- Generator: Adobe Illustrator 16.0.4, SVG Export Plug-In . SVG Version: 6.00 Build 0)  -->
<!DOCTYPE svg PUBLIC "-//W3C//DTD SVG 1.1//EN" "http://www.w3.org/Graphics/SVG/1.1/DTD/svg11.dtd">
<svg version="1.1" xmlns="http://www.w3.org/2000/svg" xmlns:xlink="http://www.w3.org/1999/xlink" x="0px" y="0px" width="1000px"
	 height="1000px" viewBox="0 0 1000 1000" enable-background="new 0 0 1000 1000" xml:space="preserve">
<g id="Layer_1" display="none">
	<g display="inline">
		<path d="M288.591,258.476v87.613H267.88v-87.613h-27.714V240h76.14v18.476H288.591z"/>
		<path d="M443.304,346.089l-20.711-42.316h-14.9v42.316h-20.711V240h41.572c21.605,0,34.419,14.751,34.419,32.482
			c0,14.9-9.089,24.138-19.371,27.863l23.691,45.744H443.304z M427.212,258.476h-19.519v28.012h19.519
			c9.089,0,15.049-5.811,15.049-14.006C442.261,264.287,436.301,258.476,427.212,258.476z"/>
		<path d="M576.039,346.983c-21.754,0-39.038-14.751-39.038-37.25V240h20.711v68.988c0,12.218,7.152,19.52,18.327,19.52
			c11.176,0,18.477-7.301,18.477-19.52V240h20.562v69.733C615.077,332.232,597.794,346.983,576.039,346.983z"/>
		<path d="M690,346.089V240h69.882v18.476h-49.17v24.883h41.869v18.477h-41.869v25.777h49.17v18.476H690z"/>
	</g>
	<g display="inline">
		<path d="M260.711,465.432v26.075h41.87v18.477h-41.87v43.061H240V446.955h69.882v18.477H260.711z"/>
		<path d="M449.119,553.044l-6.258-18.773h-37.698l-6.407,18.773h-21.605l38.591-106.089h16.241l38.741,106.089H449.119z
			 M424.384,478.246l-13.41,38.591h26.374L424.384,478.246z"/>
		<path d="M572.636,553.938c-16.092,0-28.311-3.428-38.74-14.006l13.41-13.41c6.705,6.705,15.794,8.939,25.628,8.939
			c12.219,0,18.774-4.619,18.774-13.111c0-3.726-1.043-6.854-3.278-8.941c-2.086-1.937-4.47-2.979-9.387-3.725l-12.814-1.787
			c-9.089-1.342-15.794-4.173-20.562-8.792c-5.065-5.065-7.599-11.92-7.599-20.859c0-18.924,14.006-32.185,36.952-32.185
			c14.603,0,25.182,3.576,34.271,12.367l-13.112,12.963c-6.705-6.407-14.751-7.301-21.754-7.301
			c-11.026,0-16.391,6.108-16.391,13.41c0,2.682,0.895,5.513,3.13,7.599c2.086,1.938,5.513,3.576,9.834,4.172l12.516,1.788
			c9.686,1.341,15.795,4.023,20.265,8.195c5.662,5.363,8.194,13.111,8.194,22.499C611.972,542.316,594.837,553.938,572.636,553.938z
			"/>
		<path d="M732.285,465.432v87.612h-20.711v-87.612h-27.715v-18.477H760v18.477H732.285z"/>
	</g>
	<g display="inline">
		<path d="M260.711,671.493v26.075h41.87v18.477h-41.87v43.062H240v-106.09h69.882v18.477H260.711z"/>
		<path d="M452.392,748.378c-7.45,7.45-16.539,11.622-28.608,11.622c-12.069,0-21.307-4.172-28.757-11.622
			c-10.728-10.728-10.43-23.989-10.43-42.316s-0.298-31.588,10.43-42.316c7.45-7.45,16.688-11.622,28.757-11.622
			c12.069,0,21.159,4.172,28.608,11.622c10.729,10.729,10.579,23.989,10.579,42.316S463.12,737.65,452.392,748.378z
			 M437.044,676.262c-2.98-3.428-7.599-5.662-13.261-5.662s-10.43,2.234-13.41,5.662c-4.023,4.47-5.066,9.387-5.066,29.8
			s1.043,25.33,5.066,29.801c2.98,3.427,7.748,5.662,13.41,5.662s10.281-2.235,13.261-5.662c4.023-4.471,5.215-9.388,5.215-29.801
			S441.067,680.731,437.044,676.262z"/>
		<path d="M601.233,748.378c-7.45,7.45-16.539,11.622-28.608,11.622s-21.308-4.172-28.757-11.622
			c-10.729-10.728-10.431-23.989-10.431-42.316s-0.298-31.588,10.431-42.316c7.449-7.45,16.688-11.622,28.757-11.622
			s21.158,4.172,28.608,11.622c10.729,10.729,10.579,23.989,10.579,42.316S611.962,737.65,601.233,748.378z M585.887,676.262
			c-2.98-3.428-7.6-5.662-13.262-5.662s-10.43,2.234-13.41,5.662c-4.022,4.47-5.066,9.387-5.066,29.8s1.044,25.33,5.066,29.801
			c2.98,3.427,7.748,5.662,13.41,5.662s10.281-2.235,13.262-5.662c4.022-4.471,5.215-9.388,5.215-29.801
			S589.909,680.731,585.887,676.262z"/>
		<path d="M749.238,748.975c-7.002,7.003-16.986,10.132-28.012,10.132h-38.293v-106.09h38.293c11.025,0,21.01,3.129,28.012,10.133
			c11.92,11.92,10.729,26.522,10.729,42.465C759.967,721.558,761.158,737.054,749.238,748.975z M734.785,678.05
			c-3.576-4.321-8.344-6.557-15.496-6.557h-15.645v69.137h15.645c7.152,0,11.92-2.234,15.496-6.556
			c3.875-4.769,4.471-12.367,4.471-28.46C739.256,689.522,738.66,682.817,734.785,678.05z"/>
	</g>
	<path display="inline" d="M930,70v860H70V70H930z M910,90H90v820h820V90z"/>
</g>
<g id="Layer_1_copy">
	<rect display="none" width="1000" height="1000"/>
	<g>
		<path fill="#FFFFFF" d="M288.591,258.476v87.613H267.88v-87.613h-27.714V240h76.14v18.476H288.591z"/>
		<path fill="#FFFFFF" d="M443.304,346.089l-20.711-42.316h-14.9v42.316h-20.711V240h41.572c21.605,0,34.419,14.751,34.419,32.482
			c0,14.9-9.089,24.138-19.371,27.863l23.691,45.744H443.304z M427.212,258.476h-19.519v28.012h19.519
			c9.089,0,15.049-5.811,15.049-14.006C442.261,264.287,436.301,258.476,427.212,258.476z"/>
		<path fill="#FFFFFF" d="M576.039,346.983c-21.754,0-39.038-14.751-39.038-37.25V240h20.711v68.988
			c0,12.218,7.152,19.52,18.327,19.52c11.176,0,18.477-7.301,18.477-19.52V240h20.562v69.733
			C615.077,332.232,597.794,346.983,576.039,346.983z"/>
		<path fill="#FFFFFF" d="M690,346.089V240h69.882v18.476h-49.17v24.883h41.869v18.477h-41.869v25.777h49.17v18.476H690z"/>
	</g>
	<g>
		<path fill="#FFFFFF" d="M260.711,465.432v26.075h41.87v18.477h-41.87v43.061H240V446.955h69.882v18.477H260.711z"/>
		<path fill="#FFFFFF" d="M449.119,553.044l-6.258-18.773h-37.698l-6.407,18.773h-21.605l38.591-106.089h16.241l38.741,106.089
			H449.119z M424.384,478.246l-13.41,38.591h26.374L424.384,478.246z"/>
		<path fill="#FFFFFF" d="M572.636,553.938c-16.092,0-28.311-3.428-38.74-14.006l13.41-13.41c6.705,6.705,15.794,8.939,25.628,8.939
			c12.219,0,18.774-4.619,18.774-13.111c0-3.726-1.043-6.854-3.278-8.941c-2.086-1.937-4.47-2.979-9.387-3.725l-12.814-1.787
			c-9.089-1.342-15.794-4.173-20.562-8.792c-5.065-5.065-7.599-11.92-7.599-20.859c0-18.924,14.006-32.185,36.952-32.185
			c14.603,0,25.182,3.576,34.271,12.367l-13.112,12.963c-6.705-6.407-14.751-7.301-21.754-7.301
			c-11.026,0-16.391,6.108-16.391,13.41c0,2.682,0.895,5.513,3.13,7.599c2.086,1.938,5.513,3.576,9.834,4.172l12.516,1.788
			c9.686,1.341,15.795,4.023,20.265,8.195c5.662,5.363,8.194,13.111,8.194,22.499C611.972,542.316,594.837,553.938,572.636,553.938z
			"/>
		<path fill="#FFFFFF" d="M732.285,465.432v87.612h-20.711v-87.612h-27.715v-18.477H760v18.477H732.285z"/>
	</g>
	<g>
		<path fill="#FFFFFF" d="M260.711,671.493v26.075h41.87v18.477h-41.87v43.062H240v-106.09h69.882v18.477H260.711z"/>
		<path fill="#FFFFFF" d="M452.392,748.378c-7.45,7.45-16.539,11.622-28.608,11.622c-12.069,0-21.307-4.172-28.757-11.622
			c-10.728-10.728-10.43-23.989-10.43-42.316s-0.298-31.588,10.43-42.316c7.45-7.45,16.688-11.622,28.757-11.622
			c12.069,0,21.159,4.172,28.608,11.622c10.729,10.729,10.579,23.989,10.579,42.316S463.12,737.65,452.392,748.378z
			 M437.044,676.262c-2.98-3.428-7.599-5.662-13.261-5.662s-10.43,2.234-13.41,5.662c-4.023,4.47-5.066,9.387-5.066,29.8
			s1.043,25.33,5.066,29.801c2.98,3.427,7.748,5.662,13.41,5.662s10.281-2.235,13.261-5.662c4.023-4.471,5.215-9.388,5.215-29.801
			S441.067,680.731,437.044,676.262z"/>
		<path fill="#FFFFFF" d="M601.233,748.378c-7.45,7.45-16.539,11.622-28.608,11.622s-21.308-4.172-28.757-11.622
			c-10.729-10.728-10.431-23.989-10.431-42.316s-0.298-31.588,10.431-42.316c7.449-7.45,16.688-11.622,28.757-11.622
			s21.158,4.172,28.608,11.622c10.729,10.729,10.579,23.989,10.579,42.316S611.962,737.65,601.233,748.378z M585.887,676.262
			c-2.98-3.428-7.6-5.662-13.262-5.662s-10.43,2.234-13.41,5.662c-4.022,4.47-5.066,9.387-5.066,29.8s1.044,25.33,5.066,29.801
			c2.98,3.427,7.748,5.662,13.41,5.662s10.281-2.235,13.262-5.662c4.022-4.471,5.215-9.388,5.215-29.801
			S589.909,680.731,585.887,676.262z"/>
		<path fill="#FFFFFF" d="M749.238,748.975c-7.002,7.003-16.986,10.132-28.012,10.132h-38.293v-106.09h38.293
			c11.025,0,21.01,3.129,28.012,10.133c11.92,11.92,10.729,26.522,10.729,42.465C759.967,721.558,761.158,737.054,749.238,748.975z
			 M734.785,678.05c-3.576-4.321-8.344-6.557-15.496-6.557h-15.645v69.137h15.645c7.152,0,11.92-2.234,15.496-6.556
			c3.875-4.769,4.471-12.367,4.471-28.46C739.256,689.522,738.66,682.817,734.785,678.05z"/>
	</g>
	<path fill="#FFFFFF" d="M930,70v860H70V70H930z M910,90H90v820h820V90z"/>
</g>
</svg>
